<?xml version="1.0" encoding="UTF-8" standalone="no"?>
<!DOCTYPE svg PUBLIC "-//W3C//DTD SVG 1.1//EN" "http://www.w3.org/Graphics/SVG/1.1/DTD/svg11.dtd">
<svg version="1.1" xmlns="http://www.w3.org/2000/svg" xmlns:xlink="http://www.w3.org/1999/xlink" preserveAspectRatio="xMidYMid meet" viewBox="0 0 512 512" width="512" height="512"><defs><path d="M108.93 497.67L7.37 391.4L406.44 10.02L508 116.3L108.93 497.67ZM420.42 125.3L393.21 151.31L353.82 110.1L327.93 134.85L353.49 161.6L327.47 186.47L301.9 159.72L272.98 187.36L298.55 214.11L272.52 238.98L246.96 212.23L218.04 239.87L257.42 281.07L231.4 305.95L192.01 264.74L162.97 292.5L188.16 318.6L188.18 318.62L188.2 318.65L188.21 318.67L188.23 318.69L188.25 318.72L188.26 318.74L188.28 318.77L188.29 318.79L188.3 318.82L188.31 318.84L188.32 318.87L188.33 318.9L188.34 318.92L188.34 318.95L188.35 318.98L188.35 319.01L188.36 319.03L188.36 319.06L188.36 319.09L188.36 319.12L188.36 319.14L188.36 319.17L188.35 319.2L188.35 319.23L188.34 319.25L188.34 319.28L188.33 319.31L188.32 319.34L188.31 319.36L188.3 319.39L188.29 319.41L188.28 319.44L188.26 319.46L188.25 319.49L188.23 319.51L188.21 319.54L188.2 319.56L188.18 319.58L188.16 319.6L188.14 319.62L162.63 344L137.32 317.01L108.15 344.88L133.72 371.63L107.69 396.5L82.13 369.72L58.25 392.54L110.09 446.78L457.1 115.14L405.28 60.92L381.04 84.09L420.42 125.3Z" id="axLNpNsiZ"></path></defs><g><g><g><use xlink:href="#axLNpNsiZ" opacity="1" fill="#000000" fill-opacity="1"></use><g><use xlink:href="#axLNpNsiZ" opacity="1" fill-opacity="0" stroke="#000000" stroke-width="0" stroke-opacity="1"></use></g></g></g></g></svg>